<?xml version="1.0" standalone="no"?>
<!DOCTYPE svg PUBLIC "-//W3C//DTD SVG 20010904//EN"
 "http://www.w3.org/TR/2001/REC-SVG-20010904/DTD/svg10.dtd">
<svg version="1.0" xmlns="http://www.w3.org/2000/svg"
 width="204.000000pt" height="199.000000pt" viewBox="0 0 204.000000 199.000000"
 preserveAspectRatio="xMidYMid meet">

<g transform="translate(0.000000,199.000000) scale(0.100000,-0.100000)"
fill="#000000" stroke="none">
<path d="M892 1750 c-86 -50 -133 -134 -149 -267 -3 -29 -9 -53 -12 -54 -3 -1
-37 -2 -76 -4 -131 -5 -235 -53 -286 -132 -34 -55 -37 -98 -10 -151 45 -88
122 -125 287 -138 l81 -6 6 -78 c6 -89 34 -157 80 -196 27 -22 29 -28 23 -68
-8 -52 -7 -52 -116 -107 -47 -24 -98 -52 -114 -64 -40 -29 -146 -161 -146
-183 0 -29 29 -81 56 -99 20 -13 24 -23 24 -68 0 -29 3 -60 6 -69 12 -31 24
-4 24 55 l0 60 48 -2 c27 -1 54 1 60 5 8 5 10 -13 8 -64 -3 -51 -1 -70 7 -67
17 6 17 341 0 358 -7 7 -15 11 -17 8 -2 -2 1 -48 7 -102 5 -53 7 -101 3 -105
-4 -4 -37 -7 -72 -6 -48 1 -69 6 -85 20 -18 16 -49 65 -49 77 0 10 99 127 126
150 16 14 69 44 117 67 48 23 90 46 93 51 3 6 14 -1 25 -15 46 -58 253 -50
288 12 9 16 12 15 42 -7 33 -25 115 -51 161 -51 26 0 26 -1 12 -28 -7 -15 -14
-37 -14 -49 0 -64 -52 -133 -100 -133 -16 0 -19 5 -16 23 14 67 16 97 7 97 -6
0 -15 -18 -21 -40 -13 -49 -9 -331 5 -328 6 2 9 44 7 107 -4 141 10 148 144
81 69 -35 85 -39 124 -34 73 11 114 38 193 131 79 92 122 137 170 175 17 14
32 38 36 58 5 26 16 39 43 53 20 11 41 30 47 43 9 19 7 26 -11 38 -11 8 -26
12 -33 10 -9 -4 -12 6 -11 32 1 50 -27 69 -54 37 l-18 -23 -9 37 c-17 73 -66
67 -78 -10 -4 -23 -14 -55 -22 -70 l-14 -28 -25 31 c-30 35 -54 38 -78 11 -16
-18 -16 -21 3 -52 42 -69 28 -102 -104 -246 -38 -41 -41 -42 -65 -28 -14 8
-40 21 -57 30 -37 17 -39 23 -18 51 25 33 17 41 -45 48 -76 9 -118 23 -153 53
-16 12 -35 23 -43 23 -26 0 -18 86 12 126 32 41 64 150 64 216 l0 48 68 0 c78
0 190 29 241 63 44 29 81 100 80 153 -2 129 -79 181 -291 199 l-77 7 -5 56
c-17 164 -38 227 -92 268 -32 25 -48 29 -113 32 -69 3 -81 0 -129 -28z m209
-10 c54 -29 99 -149 99 -263 l0 -57 -216 0 -217 0 6 69 c7 84 37 157 81 200
60 58 185 84 247 51z m284 -361 c139 -20 191 -67 187 -172 -4 -86 -58 -134
-192 -168 -80 -21 -100 -21 -420 -16 -184 3 -346 8 -360 10 -93 15 -110 20
-110 28 0 5 -7 9 -16 9 -28 0 -76 42 -94 82 -44 99 57 220 200 238 83 10 713
2 805 -11z m-197 -394 c1 -1 -2 -36 -9 -76 -21 -143 -69 -206 -161 -216 -57
-6 -138 14 -185 45 -36 23 -70 108 -78 191 l-6 73 218 -7 c120 -4 219 -8 221
-10z m618 -231 c-7 -56 10 -59 52 -8 26 32 30 33 35 15 3 -13 -4 -28 -19 -42
-26 -25 -32 -59 -10 -59 8 0 28 8 45 17 16 10 33 14 37 11 10 -10 -13 -36 -39
-44 -35 -10 -57 -35 -57 -63 0 -18 -19 -43 -68 -91 -38 -36 -93 -94 -123 -130
-67 -80 -86 -97 -126 -116 -50 -22 -96 -17 -166 18 l-64 33 18 29 c10 16 21
47 24 68 l7 39 51 -30 c35 -20 51 -36 49 -47 -6 -30 22 -9 87 67 35 41 76 88
91 105 38 43 47 108 20 152 -25 41 -25 44 2 40 12 -2 28 -17 37 -35 9 -17 28
-39 44 -50 15 -10 33 -30 40 -45 14 -32 27 -36 27 -9 0 10 -13 33 -30 51 -34
36 -36 47 -15 74 8 10 17 39 21 65 8 58 14 68 27 46 5 -10 7 -37 3 -61z m-781
-89 c16 4 38 9 48 11 13 4 17 -1 17 -20 0 -13 4 -36 10 -50 16 -42 -24 -61
-127 -61 -107 0 -126 15 -117 91 l6 51 66 -14 c37 -7 80 -11 97 -8z"/>
<path d="M991 1611 c-15 -10 -8 -41 9 -41 15 0 25 29 14 40 -5 5 -15 5 -23 1z"/>
<path d="M880 1500 c0 -15 5 -20 18 -18 9 2 17 10 17 18 0 8 -8 16 -17 18 -13
2 -18 -3 -18 -18z"/>
<path d="M1090 1505 c-10 -12 -9 -16 5 -21 19 -8 40 9 31 25 -10 15 -21 14
-36 -4z"/>
<path d="M1197 1264 c-9 -144 -9 -184 2 -184 21 0 35 280 15 287 -7 2 -13 -33
-17 -103z"/>
<path d="M738 1228 c-4 -135 -2 -168 12 -168 8 0 19 239 12 276 -11 57 -20 15
-24 -108z"/>
<path d="M851 1326 c-7 -8 -11 -36 -9 -68 3 -49 5 -53 28 -53 24 0 25 2 25 65
0 51 -3 65 -16 68 -9 1 -21 -4 -28 -12z"/>
<path d="M1035 1307 c-4 -13 -5 -43 -3 -68 3 -39 6 -44 28 -44 32 0 47 40 34
92 -11 47 -49 60 -59 20z"/>
<path d="M1277 1293 c-13 -12 -7 -23 13 -23 11 0 20 7 20 15 0 15 -21 21 -33
8z"/>
<path d="M625 1281 c-3 -5 -1 -12 5 -16 12 -7 30 2 30 16 0 12 -27 12 -35 0z"/>
<path d="M504 1229 c-8 -14 11 -33 25 -25 16 10 13 36 -3 36 -8 0 -18 -5 -22
-11z"/>
<path d="M1393 1233 c-23 -9 -15 -35 10 -31 12 2 22 9 22 17 0 16 -14 22 -32
14z"/>
<path d="M906 1133 c6 -27 37 -63 55 -63 18 0 49 41 49 65 0 35 -16 31 -29 -6
-13 -37 -42 -37 -51 0 -3 14 -11 26 -18 29 -9 3 -11 -4 -6 -25z"/>
<path d="M620 1136 c0 -9 7 -16 16 -16 17 0 14 22 -4 28 -7 2 -12 -3 -12 -12z"/>
<path d="M1274 1139 c-8 -14 11 -33 25 -25 16 10 13 36 -3 36 -8 0 -18 -5 -22
-11z"/>
<path d="M850 910 c0 -15 5 -20 18 -18 9 2 17 10 17 18 0 8 -8 16 -17 18 -13
2 -18 -3 -18 -18z"/>
<path d="M1060 906 c0 -19 25 -27 39 -13 18 18 13 27 -14 27 -15 0 -25 -6 -25
-14z"/>
<path d="M950 811 c0 -15 6 -21 21 -21 25 0 22 33 -4 38 -12 2 -17 -3 -17 -17z"/>
</g>
</svg>
