<?xml version="1.0" standalone="no"?>
<!DOCTYPE svg PUBLIC "-//W3C//DTD SVG 20010904//EN"
 "http://www.w3.org/TR/2001/REC-SVG-20010904/DTD/svg10.dtd">
<svg version="1.0" xmlns="http://www.w3.org/2000/svg"
 width="204.000000pt" height="199.000000pt" viewBox="0 0 204.000000 199.000000"
 preserveAspectRatio="xMidYMid meet">

<g transform="translate(0.000000,199.000000) scale(0.100000,-0.100000)"
fill="#000000" stroke="none">
<path d="M877 1885 c-164 -69 -265 -197 -318 -402 -34 -136 -20 -340 32 -458
29 -65 74 -112 138 -145 31 -15 64 -36 73 -47 21 -22 41 -142 32 -188 -7 -42
-8 -42 -114 -96 -47 -24 -98 -52 -114 -64 -40 -29 -146 -161 -146 -183 0 -29
29 -81 56 -99 20 -13 24 -23 24 -68 0 -29 3 -60 6 -69 12 -31 24 -4 24 55 l0
60 48 -2 c27 -1 54 1 60 5 8 5 10 -13 8 -64 -3 -51 -1 -70 7 -67 17 6 17 341
0 358 -7 7 -15 11 -17 8 -2 -2 1 -48 7 -102 5 -53 7 -101 3 -105 -4 -4 -37 -7
-72 -6 -48 1 -69 6 -85 20 -18 16 -49 65 -49 77 0 10 99 127 126 150 16 14 69
44 117 67 48 23 90 46 93 51 3 6 14 -1 25 -15 46 -58 253 -50 288 12 9 16 12
15 42 -7 33 -25 115 -51 161 -51 26 0 26 -1 12 -27 -7 -16 -14 -38 -14 -50 0
-64 -52 -133 -100 -133 -16 0 -19 5 -16 22 14 68 16 98 7 98 -6 0 -15 -18 -21
-40 -13 -49 -9 -331 5 -328 6 2 9 44 7 107 -4 141 10 148 144 81 69 -35 85
-39 124 -34 73 11 114 38 193 131 79 92 122 137 170 175 17 14 32 38 36 58 5
26 16 39 43 53 20 11 41 30 47 43 9 19 7 26 -11 38 -11 8 -26 12 -33 10 -9 -4
-12 6 -11 32 1 50 -27 69 -54 37 l-18 -23 -9 37 c-17 73 -66 67 -78 -10 -4
-23 -14 -55 -22 -70 l-14 -28 -25 31 c-30 35 -54 38 -78 11 -16 -18 -16 -21 3
-52 42 -69 28 -102 -104 -246 -38 -41 -41 -42 -65 -28 -14 8 -40 21 -57 30
-37 17 -39 23 -18 51 25 33 17 41 -45 48 -76 9 -118 23 -153 53 -16 12 -34 23
-42 23 -16 0 -25 149 -12 200 5 20 34 61 67 97 124 132 166 252 156 443 -11
212 -66 362 -171 466 -64 63 -91 75 -195 88 -35 5 -59 0 -103 -19z m188 -21
c52 -18 124 -83 162 -147 69 -116 114 -360 92 -497 -20 -124 -72 -226 -149
-293 -49 -42 -80 -105 -80 -161 0 -39 -4 -47 -33 -65 -48 -29 -106 -36 -150
-17 -21 8 -39 21 -41 28 -2 7 -10 39 -16 70 -15 66 -21 73 -109 119 -75 40
-111 84 -140 172 -48 142 -49 299 -4 442 54 170 129 266 257 331 79 39 134 44
211 18z m741 -1110 c-7 -56 10 -59 52 -8 26 32 30 33 35 15 3 -13 -4 -28 -19
-42 -26 -25 -32 -59 -10 -59 8 0 28 8 45 17 16 10 33 14 37 11 10 -10 -13 -36
-39 -44 -35 -10 -57 -35 -57 -63 0 -18 -19 -43 -68 -91 -38 -36 -93 -94 -123
-130 -67 -80 -86 -97 -126 -116 -50 -22 -96 -17 -166 18 l-64 33 18 29 c10 16
21 47 24 68 l7 39 51 -30 c35 -20 51 -36 49 -47 -6 -30 22 -9 87 67 35 41 76
88 91 105 38 43 47 108 20 152 -25 41 -25 44 2 40 12 -2 28 -17 37 -35 9 -17
28 -39 44 -50 15 -10 33 -30 40 -45 14 -32 27 -36 27 -9 0 10 -13 33 -30 51
-34 36 -36 47 -15 74 8 10 17 39 21 65 8 58 14 68 27 46 5 -10 7 -37 3 -61z
m-702 -163 c4 -6 -6 -18 -21 -28 -41 -27 -185 -26 -213 3 -17 16 -19 28 -14
66 6 46 6 46 33 32 38 -20 130 -18 166 4 l30 19 7 -43 c3 -24 9 -48 12 -53z"/>
<path d="M855 1771 c-154 -88 -235 -265 -222 -486 7 -121 32 -195 87 -258 49
-56 100 -77 205 -84 177 -12 271 63 310 246 37 177 -2 419 -84 527 -66 86
-199 111 -296 55z m135 -56 l0 -65 -40 0 -41 0 3 57 c3 51 6 58 28 64 49 14
50 12 50 -56z m69 44 c29 -10 31 -14 31 -60 l0 -49 -41 0 c-38 0 -41 2 -35 23
3 12 6 39 6 60 0 20 2 37 4 37 1 0 17 -5 35 -11z m-171 -59 l-1 -50 -44 0
c-40 0 -43 2 -43 28 0 26 18 45 60 64 27 12 29 9 28 -42z m272 -41 c0 -5 -9
-9 -20 -9 -13 0 -20 7 -20 19 0 11 -3 28 -6 38 -4 12 2 9 20 -10 14 -15 26
-32 26 -38z m-380 1 c0 -5 -5 -10 -11 -10 -5 0 -7 5 -4 10 3 6 8 10 11 10 2 0
4 -4 4 -10z m-2 -68 c3 -29 1 -32 -22 -32 -22 0 -26 5 -26 28 0 33 8 44 30 40
9 -2 16 -16 18 -36z m110 1 c3 -33 3 -33 -42 -33 -44 0 -46 1 -46 28 0 38 7
44 50 40 31 -3 35 -6 38 -35z m102 15 c0 -34 -13 -49 -46 -51 -23 -2 -30 2
-32 21 -6 39 5 52 43 52 30 0 35 -3 35 -22z m100 -16 l0 -38 -39 4 c-37 4 -38
5 -35 35 1 18 3 33 3 35 1 1 17 2 36 2 34 0 35 -1 35 -38z m70 -2 c0 -33 -3
-40 -19 -40 -26 0 -32 12 -25 49 5 21 12 31 25 31 15 0 19 -8 19 -40z m-460
-160 c0 -95 -1 -100 -21 -100 -21 0 -21 4 -17 73 5 67 20 127 33 127 3 0 5
-45 5 -100z m80 0 l0 -100 -30 0 c-29 0 -30 1 -30 48 0 26 3 71 6 100 6 46 9
52 30 52 24 0 24 -2 24 -100z m110 31 c0 -38 -3 -83 -6 -100 -6 -27 -10 -31
-40 -31 -19 0 -34 3 -34 8 0 4 -3 49 -5 100 l-4 92 44 0 45 0 0 -69z m90 -31
l0 -100 -35 0 -35 0 0 100 0 100 35 0 35 0 0 -100z m110 0 l0 -100 -40 0 -40
0 0 100 0 100 40 0 40 0 0 -100z m71 43 c0 -32 2 -79 4 -105 2 -47 2 -48 -26
-48 l-29 0 0 98 c0 54 3 102 7 105 3 4 15 7 25 7 15 0 18 -9 19 -57z m57 -57
c4 -84 3 -96 -12 -96 -14 0 -16 15 -16 107 0 137 20 128 28 -11z m-518 -176
c0 -53 -3 -70 -14 -70 -15 0 -26 42 -26 101 0 32 3 39 20 39 18 0 20 -7 20
-70z m80 0 c0 -67 -1 -70 -24 -70 -21 0 -24 5 -30 60 -8 69 -4 80 30 80 23 0
24 -2 24 -70z m104 27 c1 -39 -3 -44 -22 -25 -6 6 -15 8 -19 4 -5 -4 5 -19 20
-32 34 -29 28 -44 -19 -44 l-34 0 0 71 0 70 37 -3 c34 -3 36 -5 37 -41z m102
-11 c1 -42 -11 -52 -51 -42 -22 6 -25 12 -25 50 l0 43 37 -6 c35 -6 37 -8 39
-45z m104 -21 l0 -65 -40 0 c-44 0 -57 23 -20 35 21 7 46 43 36 52 -3 4 -14
-1 -24 -10 -27 -24 -32 -21 -32 18 0 34 1 35 40 35 l40 0 0 -65z m78 -2 c3
-62 2 -63 -23 -63 -27 0 -27 0 -29 80 -1 49 0 51 24 48 23 -3 25 -7 28 -65z
m52 33 c0 -47 -11 -96 -21 -96 -5 0 -9 29 -9 65 0 51 3 65 15 65 10 0 15 -10
15 -34z m-230 -86 c0 -5 -18 -10 -40 -10 -22 0 -40 5 -40 10 0 6 18 10 40 10
22 0 40 -4 40 -10z m-290 -52 c0 -19 -2 -20 -10 -8 -13 19 -13 30 0 30 6 0 10
-10 10 -22z m80 -12 c0 -29 -3 -33 -25 -33 -21 0 -25 4 -25 28 0 21 6 29 23
32 12 2 23 5 25 6 1 0 2 -14 2 -33z m93 24 c14 0 18 -6 15 -27 -3 -25 -7 -28
-40 -28 -36 0 -38 1 -38 34 0 30 2 33 23 27 12 -3 30 -6 40 -6z m91 0 c19 0
22 -4 18 -31 -4 -27 -8 -30 -36 -27 -27 3 -31 7 -34 37 -3 28 -1 33 13 27 9
-3 27 -6 39 -6z m110 4 c9 -3 16 -17 16 -30 0 -21 -4 -24 -40 -24 -38 0 -40 2
-40 30 0 25 4 30 24 30 13 0 31 -3 40 -6z m87 -4 c5 0 9 -11 9 -25 0 -20 -5
-25 -25 -25 -21 0 -25 5 -25 31 0 24 3 30 16 25 9 -3 20 -6 25 -6z m-373 -112
c4 -33 -14 -30 -42 8 l-18 26 28 -4 c23 -2 30 -9 32 -30z m102 -13 c0 -49 -7
-53 -54 -35 -21 8 -26 16 -26 45 0 34 1 35 40 35 l40 0 0 -45z m95 3 c-8 -49
-16 -57 -50 -50 -21 4 -24 9 -22 48 2 44 2 44 40 44 l39 0 -7 -42z m105 28 c0
-8 3 -21 6 -30 4 -10 -5 -20 -25 -30 -51 -27 -61 -22 -61 29 l0 45 40 0 c28 0
40 -4 40 -14z m70 11 c0 -2 -9 -12 -20 -22 -19 -18 -20 -17 -20 3 0 15 6 22
20 22 11 0 20 -2 20 -3z"/>
<path d="M832 1485 c-23 -50 -13 -115 18 -115 23 0 30 19 30 80 0 34 -4 50
-16 54 -21 8 -19 9 -32 -19z"/>
<path d="M1030 1484 c-18 -45 -9 -94 16 -94 26 0 44 63 28 104 -9 24 -33 19
-44 -10z"/>
</g>
</svg>
