<?xml version="1.0" standalone="no"?>
<!DOCTYPE svg PUBLIC "-//W3C//DTD SVG 20010904//EN"
 "http://www.w3.org/TR/2001/REC-SVG-20010904/DTD/svg10.dtd">
<svg version="1.0" xmlns="http://www.w3.org/2000/svg"
 width="204.000000pt" height="199.000000pt" viewBox="0 0 204.000000 199.000000"
 preserveAspectRatio="xMidYMid meet">

<g transform="translate(0.000000,199.000000) scale(0.100000,-0.100000)"
fill="#000000" stroke="none">
<path d="M1058 1606 c-49 -48 -71 -100 -76 -179 -4 -62 -7 -69 -32 -82 -15 -8
-33 -27 -40 -44 -7 -17 -17 -28 -25 -25 -7 3 -64 1 -128 -5 -130 -11 -159 -24
-233 -102 -118 -124 -168 -266 -144 -412 15 -94 62 -170 116 -187 47 -16 159
-8 202 14 42 21 89 71 119 127 l25 44 -5 -69 c-3 -38 -11 -74 -18 -81 -8 -7
-52 -32 -99 -56 -47 -24 -98 -52 -114 -64 -40 -29 -146 -161 -146 -183 0 -29
29 -81 56 -99 20 -13 24 -23 24 -68 0 -29 3 -60 6 -69 12 -31 24 -4 24 55 l0
60 48 -2 c27 -1 54 1 60 5 8 5 10 -13 8 -64 -3 -51 -1 -70 7 -67 17 6 17 341
0 358 -7 7 -15 11 -17 8 -2 -2 1 -48 7 -102 5 -53 7 -101 3 -105 -4 -4 -37 -7
-72 -6 -48 1 -69 6 -85 20 -18 16 -49 65 -49 77 0 10 99 127 126 150 16 14 69
44 117 67 48 23 90 46 93 51 3 6 14 -1 25 -15 46 -58 253 -50 288 12 9 16 12
15 42 -7 33 -25 115 -51 161 -51 26 0 26 -1 12 -28 -7 -15 -14 -37 -14 -49 0
-64 -52 -133 -100 -133 -16 0 -19 5 -16 23 14 67 16 97 7 97 -6 0 -15 -18 -21
-40 -13 -49 -9 -331 5 -328 6 2 9 44 7 107 -4 141 9 148 147 80 70 -35 88 -40
123 -35 64 10 106 39 210 140 54 52 117 105 140 118 31 17 46 33 54 58 8 26
22 40 50 54 36 17 63 42 64 58 0 17 -34 38 -52 32 -18 -5 -18 -4 -8 16 18 33
5 70 -25 70 -13 0 -29 -8 -34 -17 -8 -15 -10 -11 -11 18 0 40 -19 63 -47 57
-16 -3 -29 -30 -60 -120 -8 -27 -26 -22 -45 12 -19 33 -48 39 -72 14 -19 -19
-19 -22 -1 -54 8 -14 14 -41 15 -60 0 -31 -10 -45 -90 -122 -95 -92 -100 -94
-149 -56 -13 10 -30 18 -37 18 -22 0 -26 20 -10 45 9 13 16 28 16 33 0 5 -27
12 -60 16 -76 9 -118 23 -153 53 -16 12 -35 23 -43 23 -11 0 -14 17 -14 75 0
41 2 75 5 75 2 0 16 -22 29 -48 28 -56 70 -91 151 -127 98 -43 179 -30 256 42
65 61 84 111 75 205 -13 137 -77 286 -155 365 -59 60 -95 71 -251 77 -52 2
-103 5 -112 5 -10 1 -18 7 -18 15 0 8 -8 24 -18 36 -15 18 -17 32 -11 79 4 31
8 64 8 74 1 10 17 34 36 54 46 48 46 82 -1 97 -15 5 -30 -3 -56 -28z m68 -7
c3 -6 -10 -28 -31 -49 -37 -38 -54 -85 -55 -147 0 -26 -4 -33 -19 -33 -18 0
-19 5 -14 58 7 69 21 106 57 150 28 33 50 40 62 21z m-62 -281 c9 -12 16 -26
16 -30 0 -5 -34 -8 -75 -8 -41 0 -75 4 -75 9 0 19 54 51 86 51 23 0 38 -7 48
-22z m285 -79 c56 -10 72 -18 113 -57 81 -75 148 -247 148 -376 -1 -74 -7 -92
-51 -144 -44 -51 -87 -72 -150 -72 -98 0 -186 52 -236 139 -15 25 -31 49 -37
53 -12 8 -286 -1 -303 -11 -7 -4 -28 -31 -45 -61 -18 -29 -50 -67 -71 -84 -34
-27 -46 -30 -125 -34 -102 -5 -125 7 -164 86 -20 40 -23 62 -23 152 0 99 2
109 34 175 22 44 59 95 100 138 77 80 90 89 151 98 79 11 589 10 659 -2z m494
-463 c3 -7 1 -31 -4 -52 -15 -67 -8 -70 46 -23 31 27 35 29 35 12 0 -11 -11
-30 -25 -43 -45 -42 -21 -66 40 -38 14 6 28 8 33 4 10 -11 -36 -46 -52 -40
-16 6 -56 -41 -56 -67 0 -10 -12 -26 -27 -36 -41 -25 -142 -112 -182 -156 -52
-58 -114 -96 -166 -104 -39 -5 -56 -1 -114 27 -68 33 -69 34 -54 57 8 12 20
43 26 67 l12 45 53 -31 c38 -22 50 -33 41 -39 -18 -11 -4 -23 14 -12 9 4 59
51 113 102 109 106 123 135 99 205 -8 22 -12 42 -10 44 10 10 36 -10 47 -35 7
-15 27 -45 45 -66 18 -20 33 -44 33 -51 0 -8 5 -18 10 -21 23 -14 9 53 -16 81
l-27 28 25 46 c14 25 29 60 33 78 7 34 19 42 28 18z m-753 -80 c0 -35 4 -76
10 -90 16 -42 -24 -61 -126 -61 -104 0 -129 17 -118 79 3 21 6 60 6 85 l0 46
114 3 114 4 0 -66z"/>
<path d="M896 1178 c-24 -39 -31 -114 -12 -143 9 -14 23 -25 30 -25 17 0 47
61 53 110 10 69 -39 108 -71 58z"/>
<path d="M1082 1173 c-32 -64 -33 -149 -2 -168 26 -16 59 5 68 43 14 55 14
112 1 128 -16 20 -57 17 -67 -3z"/>
<path d="M551 1091 c-6 -11 -11 -34 -11 -51 0 -27 -2 -30 -25 -24 -37 9 -55
-11 -55 -62 0 -46 25 -84 54 -84 10 0 16 -14 18 -42 l3 -43 65 0 65 0 5 45 c4
40 8 45 30 45 41 0 50 12 50 70 l0 55 -40 6 c-38 6 -39 7 -42 53 l-3 46 -52 3
c-43 3 -54 0 -62 -17z m86 -16 c7 -3 12 -12 11 -22 -4 -54 1 -63 43 -69 39 -7
40 -8 37 -43 -3 -34 -5 -36 -40 -39 -35 -3 -36 -4 -43 -53 l-7 -49 -39 0 c-38
0 -39 1 -39 34 0 52 -9 66 -41 66 -28 0 -29 2 -29 45 0 45 0 45 35 45 34 0 34
1 41 50 7 53 9 54 71 35z"/>
<path d="M1354 1079 c-17 -19 -17 -23 -3 -47 10 -19 24 -28 46 -30 27 -3 32 1
42 29 9 27 8 35 -5 51 -22 24 -56 23 -80 -3z m66 -29 c0 -24 -26 -38 -42 -22
-16 16 -2 42 22 42 13 0 20 -7 20 -20z"/>
<path d="M930 925 c0 -46 4 -60 25 -81 18 -18 31 -23 48 -19 29 9 57 42 58 69
1 11 2 36 4 54 l3 32 -69 0 -69 0 0 -55z m110 9 c0 -21 -3 -25 -17 -19 -10 4
-22 7 -28 7 -5 0 -18 -3 -27 -7 -15 -6 -18 -2 -18 19 0 24 3 26 45 26 42 0 45
-2 45 -26z m-22 -46 c8 -8 9 -15 1 -25 -15 -17 -34 -16 -50 3 -10 13 -10 17 2
25 19 12 33 11 47 -3z"/>
<path d="M1234 945 c-14 -21 -14 -30 -4 -55 14 -34 42 -39 78 -14 27 18 29 55
4 77 -27 24 -59 21 -78 -8z m70 -18 c14 -21 -13 -51 -37 -41 -20 7 -22 35 -5
52 15 15 28 11 42 -11z"/>
<path d="M1476 938 c-16 -25 -12 -64 8 -71 31 -12 61 -1 70 26 13 36 -2 61
-37 65 -18 2 -30 -4 -41 -20z m54 -13 c15 -18 5 -35 -21 -35 -12 0 -19 7 -19
18 0 33 20 42 40 17z"/>
<path d="M1352 814 c-36 -25 -28 -70 16 -93 53 -28 99 52 54 92 -23 21 -41 21
-70 1z m62 -29 c10 -26 -4 -46 -28 -39 -33 10 -41 21 -26 39 16 19 46 19 54 0z"/>
</g>
</svg>
