<?xml version="1.0" standalone="no"?>
<!DOCTYPE svg PUBLIC "-//W3C//DTD SVG 20010904//EN"
 "http://www.w3.org/TR/2001/REC-SVG-20010904/DTD/svg10.dtd">
<svg version="1.0" xmlns="http://www.w3.org/2000/svg"
 width="204.000000pt" height="199.000000pt" viewBox="0 0 204.000000 199.000000"
 preserveAspectRatio="xMidYMid meet">

<g transform="translate(0.000000,199.000000) scale(0.100000,-0.100000)"
fill="#000000" stroke="none">
<path d="M913 1940 c-41 -25 -63 -68 -63 -124 0 -36 6 -50 30 -74 34 -34 37
-59 15 -102 l-16 -30 -132 -1 c-72 -1 -150 -2 -172 -3 -22 -1 -66 -3 -97 -4
l-58 -2 0 -174 c0 -170 0 -174 -20 -169 -35 9 -42 39 -39 158 2 63 1 117 -2
120 -12 11 -40 -47 -60 -123 -28 -105 -31 -284 -7 -328 18 -32 60 -54 104 -54
l24 0 0 -144 c0 -79 3 -151 6 -160 5 -14 33 -16 211 -16 l206 0 -7 -47 c-3
-26 -12 -53 -19 -59 -6 -7 -50 -31 -97 -55 -47 -24 -98 -52 -114 -64 -40 -29
-146 -161 -146 -183 0 -29 29 -81 56 -99 20 -13 24 -23 24 -68 0 -29 3 -60 6
-69 12 -31 24 -4 24 55 l0 60 48 -2 c27 -1 54 1 60 5 8 5 10 -13 8 -64 -3 -51
-1 -70 7 -67 17 6 17 341 0 358 -7 7 -15 11 -17 8 -2 -2 1 -48 7 -102 5 -53 7
-101 3 -105 -4 -4 -37 -7 -72 -6 -48 1 -69 6 -85 20 -18 16 -49 65 -49 77 0
10 99 127 126 150 16 14 69 44 117 67 48 23 90 46 93 51 3 6 14 -1 25 -15 46
-58 253 -50 288 12 9 16 12 15 42 -7 33 -25 115 -51 161 -51 26 0 26 -1 12
-27 -7 -16 -14 -38 -14 -50 0 -64 -52 -133 -100 -133 -16 0 -19 5 -16 23 14
67 16 97 7 97 -6 0 -15 -18 -21 -40 -13 -49 -9 -331 5 -328 6 2 9 44 7 107 -4
141 10 148 144 81 69 -35 85 -39 124 -34 73 11 114 38 193 131 79 92 122 137
170 175 17 14 32 38 36 58 5 26 16 39 43 53 20 11 41 30 47 43 9 19 7 26 -11
38 -11 8 -26 12 -33 10 -9 -4 -12 6 -11 32 1 50 -27 69 -54 37 l-18 -23 -9 37
c-17 73 -66 67 -78 -10 -4 -23 -14 -55 -22 -70 l-14 -28 -25 31 c-30 35 -54
38 -78 11 -16 -18 -16 -21 3 -52 42 -69 28 -102 -104 -246 -38 -41 -41 -42
-65 -28 -14 8 -40 21 -57 30 -37 17 -39 23 -18 51 25 33 17 41 -45 48 -76 9
-118 23 -153 53 -16 12 -35 23 -43 23 -10 0 -14 13 -14 49 l0 48 123 7 c68 4
161 7 208 6 46 -1 92 -1 102 -1 15 1 17 15 17 152 0 125 2 150 14 146 8 -3 32
3 54 14 56 28 72 78 72 218 0 156 -34 291 -73 291 -9 0 -11 -31 -9 -126 3
-133 -2 -154 -42 -154 -20 0 -21 4 -23 166 -1 91 -5 169 -8 173 -4 3 -119 8
-256 9 -137 2 -249 7 -249 10 -1 4 -5 27 -10 52 -8 40 -6 48 16 70 55 58 37
177 -30 205 -47 20 -75 19 -113 -5z m109 -22 c68 -55 41 -188 -39 -188 -37 0
-88 28 -103 55 -18 33 1 96 37 124 29 23 81 27 105 9z m-12 -233 c0 -13 4 -35
10 -49 9 -25 9 -26 -34 -26 -25 0 -51 -2 -58 -5 -12 -5 -12 4 -4 47 9 53 10
53 48 55 34 1 38 -2 38 -22z m323 -105 l207 0 0 -419 0 -420 -377 -3 c-208 -2
-456 -2 -551 0 l-172 3 0 419 1 420 167 2 c92 2 246 2 342 1 96 -2 268 -3 383
-3z m352 -350 c-2 -52 -9 -109 -15 -127 -13 -35 -48 -63 -80 -63 -17 0 -20 6
-20 49 0 26 -3 69 -6 95 -6 38 -4 46 9 46 29 0 66 23 73 43 7 23 11 55 14 132
l2 50 14 -65 c8 -39 12 -102 9 -160z m-1323 23 c12 -13 30 -23 40 -23 17 0 19
-8 16 -87 l-3 -88 -30 4 c-74 8 -91 48 -81 200 8 147 18 176 28 86 6 -49 15
-76 30 -92z m1444 -499 c-7 -56 10 -59 52 -8 26 32 30 33 35 15 3 -13 -4 -28
-19 -42 -26 -25 -32 -59 -10 -59 8 0 28 8 45 17 16 10 33 14 37 11 10 -10 -13
-36 -39 -44 -35 -10 -57 -35 -57 -63 0 -18 -19 -43 -68 -91 -38 -36 -93 -94
-123 -130 -67 -80 -86 -97 -126 -116 -50 -22 -96 -17 -166 18 l-64 33 18 29
c10 16 21 47 24 68 l7 39 51 -30 c35 -20 51 -36 49 -47 -6 -30 22 -9 87 67 35
41 76 88 91 105 38 43 47 108 20 152 -25 41 -25 44 2 40 12 -2 28 -17 37 -35
9 -17 28 -39 44 -50 15 -10 33 -30 40 -45 14 -32 27 -36 27 -9 0 10 -13 33
-30 51 -34 36 -36 47 -15 74 8 10 17 39 21 65 8 58 14 68 27 46 5 -10 7 -37 3
-61z m-716 -83 c0 -22 4 -51 10 -65 16 -42 -24 -61 -127 -61 -110 0 -124 13
-116 103 l6 62 113 0 114 0 0 -39z"/>
<path d="M645 1380 l-80 -80 -5 -118 c-8 -176 -3 -197 55 -261 28 -29 61 -57
74 -62 13 -5 153 -10 311 -11 l288 -1 31 34 c74 80 82 104 88 268 l6 151 -42
54 c-23 30 -53 66 -66 80 l-24 26 -278 0 -278 0 -80 -80z m583 53 c50 -5 54
-8 102 -68 l50 -63 0 -146 c0 -160 1 -158 -69 -245 l-34 -44 -296 7 -296 6
-53 58 -53 57 5 146 5 145 72 77 71 77 222 -1 c121 0 245 -2 274 -6z"/>
<path d="M828 1272 c-14 -20 -28 -47 -32 -60 -12 -36 11 -25 37 18 l24 41 27
-41 c24 -36 46 -52 46 -32 0 8 -68 112 -74 112 -2 0 -15 -17 -28 -38z"/>
<path d="M1103 1288 c-23 -25 -63 -89 -63 -100 0 -20 21 -4 47 37 15 25 30 45
33 45 3 -1 16 -23 29 -51 15 -29 28 -46 34 -40 7 7 -46 131 -56 131 -2 0 -13
-10 -24 -22z"/>
<path d="M898 1098 c-3 -7 -3 -30 0 -52 l4 -38 75 4 c81 4 95 13 91 62 -4 44
-28 46 -28 2 0 -33 -2 -36 -30 -37 -16 -1 -42 -1 -57 -2 -25 -1 -28 3 -31 36
-3 36 -16 49 -24 25z"/>
</g>
</svg>
