<?xml version="1.0" standalone="no"?>
<!DOCTYPE svg PUBLIC "-//W3C//DTD SVG 20010904//EN"
 "http://www.w3.org/TR/2001/REC-SVG-20010904/DTD/svg10.dtd">
<svg version="1.0" xmlns="http://www.w3.org/2000/svg"
 width="204.000000pt" height="199.000000pt" viewBox="0 0 204.000000 199.000000"
 preserveAspectRatio="xMidYMid meet">

<g transform="translate(0.000000,199.000000) scale(0.100000,-0.100000)"
fill="#000000" stroke="none">
<path d="M930 1620 c-30 -4 -86 -8 -124 -9 -38 -1 -83 -5 -100 -10 -17 -6 -74
-14 -126 -20 -250 -27 -412 -52 -434 -66 -13 -9 -26 -28 -30 -43 -14 -70 -28
-467 -25 -745 l4 -309 27 -23 c42 -36 121 -42 486 -35 153 2 226 0 234 -8 6
-6 8 -25 4 -46 -9 -47 -33 -53 -236 -60 -179 -5 -236 -17 -330 -68 -65 -35
-133 -102 -128 -126 3 -16 27 -17 298 -17 162 0 385 3 495 7 110 4 301 10 425
13 224 6 397 21 414 36 15 13 -32 93 -73 121 -59 42 -136 56 -346 63 -104 4
-197 11 -207 16 -25 13 -25 86 0 93 9 2 165 8 345 12 368 7 365 7 373 79 3 22
7 54 9 70 27 181 31 886 6 967 -10 33 -17 38 -64 52 -88 25 -209 47 -277 51
-160 9 -570 12 -620 5z m570 -29 c162 -13 348 -49 359 -70 19 -35 23 -130 23
-448 -1 -314 -20 -616 -40 -634 -4 -4 -99 -9 -212 -13 -367 -11 -490 -18 -499
-30 -4 -6 -11 -27 -14 -47 -5 -33 3 -56 30 -89 3 -3 102 -8 221 -11 250 -8
290 -17 353 -82 21 -23 39 -46 39 -53 0 -8 -39 -14 -122 -18 -68 -4 -154 -9
-193 -11 -38 -3 -266 -9 -505 -15 -239 -5 -508 -12 -597 -15 -90 -2 -163 -1
-163 4 0 20 70 75 136 107 83 39 155 51 351 58 131 4 178 13 194 38 11 17 10
100 -2 114 -10 12 -66 14 -338 13 -179 -1 -339 2 -354 6 -17 5 -32 18 -38 33
-6 15 -10 182 -10 406 1 373 12 631 28 646 18 18 103 38 183 44 47 4 112 11
145 16 125 20 314 43 410 50 147 10 483 11 615 1z"/>
<path d="M955 1504 c-84 -4 -433 -39 -538 -54 -82 -11 -137 -26 -151 -40 -7
-7 -13 -104 -18 -288 -10 -433 -11 -534 -3 -574 6 -31 12 -37 43 -45 74 -18
383 -22 777 -10 432 13 666 38 679 74 18 46 30 797 13 855 -10 37 -30 46 -144
64 -97 15 -487 26 -658 18z m688 -47 c38 -8 75 -20 82 -28 16 -16 20 -264 10
-589 -8 -235 -11 -268 -33 -274 -48 -15 -365 -38 -662 -47 -311 -11 -628 -7
-727 7 l-42 6 -3 82 c-4 100 8 775 13 781 16 16 404 65 614 79 145 9 681 -3
748 -17z"/>
<path d="M1400 1397 c0 -41 -27 -68 -90 -93 -25 -9 -53 -24 -62 -31 -11 -10
-27 -13 -46 -9 -72 16 -260 -59 -309 -123 -6 -9 -13 -14 -16 -11 -2 3 -22 30
-44 60 -52 71 -91 106 -102 94 -5 -5 -12 -61 -15 -124 -22 -418 -27 -533 -23
-536 2 -2 42 11 88 30 l84 34 17 -51 c10 -28 20 -52 23 -55 2 -3 25 3 50 12
30 12 45 24 45 35 0 11 18 26 50 41 78 36 139 102 187 200 64 131 88 249 64
314 -12 29 -1 40 46 51 59 12 123 99 123 167 0 40 -18 23 -29 -27 -13 -60 -63
-115 -104 -115 -12 0 -31 -7 -41 -15 -18 -14 -36 -12 -36 4 0 5 21 16 48 26
65 25 90 43 108 76 19 37 18 79 -1 79 -10 0 -15 -10 -15 -33z m-534 -293 c118
-174 130 -190 172 -246 23 -32 42 -61 42 -66 0 -5 -27 -19 -60 -31 -32 -12
-62 -26 -65 -30 -2 -5 1 -29 9 -54 13 -44 13 -45 -12 -56 -29 -14 -35 -9 -52
42 -7 21 -18 41 -24 43 -7 3 -44 -7 -81 -21 -37 -14 -70 -23 -72 -21 -2 2 1
117 6 256 6 139 11 273 11 299 l1 46 33 -37 c18 -21 59 -76 92 -124z m360 130
c26 -7 49 -47 57 -96 12 -76 -65 -281 -136 -363 -19 -22 -60 -55 -92 -74 -47
-28 -58 -32 -66 -20 -17 26 -4 40 61 66 36 14 66 27 68 29 5 3 -23 46 -70 110
-21 28 -38 54 -38 59 0 19 105 113 131 119 40 8 79 49 79 82 0 15 8 33 17 40
29 20 11 24 -37 8 -57 -20 -88 -49 -96 -89 -6 -35 -113 -149 -121 -129 -2 7
-24 38 -48 70 -50 68 -49 70 35 124 88 56 190 82 256 64z m-26 -78 c0 -25 -44
-69 -65 -65 -17 4 -15 8 14 42 35 39 51 46 51 23z"/>
</g>
</svg>
