<?xml version="1.0" standalone="no"?>
<!DOCTYPE svg PUBLIC "-//W3C//DTD SVG 20010904//EN"
 "http://www.w3.org/TR/2001/REC-SVG-20010904/DTD/svg10.dtd">
<svg version="1.0" xmlns="http://www.w3.org/2000/svg"
 width="204.000000pt" height="199.000000pt" viewBox="0 0 204.000000 199.000000"
 preserveAspectRatio="xMidYMid meet">

<g transform="translate(0.000000,199.000000) scale(0.100000,-0.100000)"
fill="#000000" stroke="none">
<path d="M849 1491 c-198 -63 -304 -249 -285 -501 11 -160 43 -237 109 -268
43 -20 106 -82 108 -105 0 -7 3 -23 5 -37 3 -14 2 -40 -1 -57 -7 -42 -34 -56
-145 -78 -126 -24 -142 -31 -186 -78 -56 -58 -84 -130 -91 -234 -5 -70 -4 -85
8 -81 7 2 14 21 15 44 6 112 33 204 72 248 30 32 94 58 189 77 50 10 101 23
112 28 74 40 67 194 -11 254 -73 56 -114 91 -122 106 -24 40 -35 133 -33 256
2 122 4 134 33 195 58 122 164 200 299 220 120 18 189 -2 250 -72 75 -88 105
-199 105 -391 0 -145 -17 -196 -90 -273 -64 -67 -85 -117 -74 -182 5 -31 14
-44 46 -65 23 -14 62 -29 87 -32 139 -18 212 -48 237 -98 23 -44 43 -140 44
-209 0 -53 11 -80 24 -59 9 13 -10 181 -26 232 -7 24 -28 59 -48 79 -39 39
-76 53 -198 74 -48 8 -94 23 -112 36 -26 18 -30 28 -30 67 0 60 23 105 75 148
70 57 88 117 88 291 0 153 -11 216 -53 310 -32 71 -80 123 -142 153 -57 27
-177 28 -259 2z"/>
<path d="M935 1433 c-11 -3 -24 -9 -29 -14 -6 -5 -22 -9 -37 -9 -22 0 -38 -13
-73 -56 -26 -31 -46 -65 -46 -77 0 -28 47 -95 72 -103 11 -3 30 -3 43 0 13 3
27 1 30 -4 4 -7 36 -9 83 -6 67 4 80 8 100 31 12 14 22 22 23 18 0 -4 6 5 13
20 20 45 9 118 -20 145 -14 12 -34 22 -45 22 -10 0 -28 9 -39 20 -20 20 -35
22 -75 13z m69 -48 c6 -11 12 -22 14 -25 2 -2 7 1 11 8 6 10 13 10 34 1 27
-12 42 -45 23 -52 -8 -3 -8 -8 2 -18 16 -18 17 -68 0 -51 -18 18 -31 14 -25
-8 6 -24 -17 -50 -44 -50 -12 0 -19 7 -19 18 0 32 -13 33 -31 2 -11 -17 -25
-30 -33 -30 -19 0 -46 27 -47 48 0 13 -3 12 -11 -5 -22 -45 -71 -34 -68 16 3
42 0 47 -16 26 -15 -19 -15 -19 -12 10 2 21 11 34 31 43 22 11 26 17 17 27 -9
11 -5 18 16 32 20 13 29 14 32 5 6 -18 26 -14 40 9 17 26 70 23 86 -6z"/>
<path d="M1016 1331 c-3 -5 1 -12 10 -15 20 -8 29 -1 19 13 -8 13 -22 14 -29
2z"/>
<path d="M837 1304 c-4 -4 -4 -10 -1 -15 6 -10 34 0 34 12 0 10 -24 12 -33 3z"/>
<path d="M1092 333 c-18 -7 -42 -57 -42 -88 0 -48 39 -102 93 -130 19 -10 29
-6 73 27 29 22 57 52 64 69 14 32 8 92 -11 115 -15 18 -50 18 -74 0 -17 -12
-23 -12 -47 0 -28 15 -35 16 -56 7z m58 -38 c7 -8 17 -15 22 -15 5 0 16 7 24
15 24 24 53 18 65 -12 14 -38 -4 -75 -57 -118 -41 -34 -45 -35 -65 -21 -69 48
-82 166 -18 166 9 0 22 -7 29 -15z"/>
</g>
</svg>
